<svg xmlns="http://www.w3.org/2000/svg"
shape-rendering="geometricPrecision"
width="4000" height="4000" viewBox="0 0 630 630"><rect width="100%" height="100%" fill="#EFE5E1" />
  <metadata>null</metadata>

<path d="
M 28.481 357.609
C 28.968 354.196 28.782 350.739 29.359 347.316
C 30.893 338.217 35.387 329.251 44.427 325.772
C 46.752 324.877 49.218 324.265 51.698 324.023
C 54.933 323.707 58.194 323.66 61.422 324.102
C 65.125 324.61 68.659 325.576 72.022 327.22
C 73.79 328.084 75.736 330.015 77.666 330.317
C 78.25 329.813 78.14 328.644 78.141 327.942
C 78.143 326.129 78.092 324.313 78.079 322.5
C 78.03 315.734 77.887 308.955 77.743 302.189
C 77.684 299.404 77.199 295.931 79.972 294.251
C 82.846 292.51 87.801 293.581 91.051 293.279
C 94.795 292.93 98.774 291.628 101.716 294.862
C 103.331 296.638 102.558 299.877 102.46 302.066
C 102.192 308.031 102.383 314.033 102.371 320.003
C 102.335 338.668 102.307 357.333 102.318 375.998
C 102.321 381.667 102.418 387.335 102.435 393.004
C 102.441 395.334 102.971 398.331 102.193 400.553
C 101.032 403.872 97.705 403.647 94.844 403.5
C 92.4 403.374 89.946 403.37 87.5 403.388
C 85.768 403.4 83.38 403.953 81.834 402.945
C 79.544 401.452 79.201 399.117 78.414 396.749
C 77.474 396.877 76.518 397.77 75.72 398.264
C 74.099 399.266 72.396 400.133 70.681 400.961
C 66.533 402.964 61.505 403.981 56.911 404.156
C 53.7 404.278 50.489 403.978 47.374 403.182
C 45.013 402.578 42.744 401.682 40.643 400.445
C 29.036 393.616 28.363 377.728 28.404 365.813
C 28.414 363.081 28.317 360.338 28.481 357.609 Z
M 52.475 361.124
C 52.157 366.549 52.128 374.458 56.227 378.603
C 60.705 383.131 69.162 382.239 73.314 377.695
C 76.001 374.754 76.928 370.832 77.178 366.959
C 77.518 361.709 77.216 355.676 73.657 351.468
C 69.553 346.616 60.396 344.484 55.805 349.823
C 53.132 352.931 52.705 357.207 52.475 361.124 Z"
opacity="1" fill="rgb(212,76,80)" fill-rule="evenodd" />
<path d="
M 72.083 261.884
C 71.245 263.606 70.806 265.953 70.889 267.867
C 66.902 268.829 62.955 273.57 67.51 276.664
C 68.156 277.103 68.925 277.421 69.673 277.638
C 73.328 278.7 77.108 277.787 80.713 276.99
C 85.463 275.938 90.223 274.918 94.981 273.911
C 114.723 269.735 134.454 265.409 154.15 261.016
C 160.05 259.7 165.974 258.573 171.834 257.074
C 174.66 256.351 178.32 255.432 180.461 253.318
C 182.71 251.095 182.161 247.446 178.976 246.411
C 176.318 245.547 173.433 246.04 170.878 246.978
C 169.629 246.058 168.762 242.874 167.891 241.48
C 168.103 240.787 168.956 240.686 169.615 240.534
C 171.498 240.101 173.658 239.87 175.589 239.903
C 181.828 240.007 190.159 244.666 188.034 252.044
C 186.808 256.302 182.871 259.579 178.927 261.253
C 170.955 264.638 161.729 265.563 153.326 267.491
C 142.018 270.086 130.629 272.508 119.268 274.877
C 110.982 276.605 102.791 278.767 94.468 280.32
C 86.532 281.8 77.325 285.533 69.226 283.741
C 65.412 282.897 61.51 280.752 59.989 276.956
C 56.975 269.431 64.566 261.579 72.083 261.884 Z"
opacity="1" fill="rgb(219,81,79)" fill-rule="evenodd" />
<path d="
M 72.083 261.884
C 73.643 260.918 74.787 258.294 76.02 256.881
C 78.837 253.652 82.553 251.127 86.647 249.823
C 90.164 248.703 93.856 248.488 97.509 248.931
C 98.777 249.085 100.081 249.335 101.311 249.681
C 101.656 249.778 102.7 250.311 103.044 250.163
C 104.267 246.444 104.771 242.804 106.757 239.332
C 112.537 229.231 124.527 223.592 135.479 228.963
C 137.909 230.155 140.059 231.863 141.615 234.089
C 142.273 235.03 142.667 236.708 143.442 237.428
C 149.441 234.792 156.7 234.458 162.632 237.448
C 164.362 238.32 167.024 239.672 167.891 241.48
C 168.762 242.874 169.629 246.058 170.878 246.978
C 171.571 250.761 169.559 252.961 166.005 254.138
C 161.239 255.717 156.127 256.551 151.238 257.664
C 131.113 262.241 110.835 266.177 90.729 270.835
C 84.729 272.225 73.097 276.562 70.889 267.867
C 70.806 265.953 71.245 263.606 72.083 261.884 Z
M 77.917 265.561
C 77.814 266.072 77.699 266.523 77.717 267.047
C 79.761 267.258 82.093 266.355 84.101 265.992
C 88.825 265.137 93.479 263.935 98.182 262.962
C 113.37 259.82 128.482 256.309 143.669 253.173
C 148.861 252.101 154.07 251.113 159.217 249.827
C 160.595 249.482 163.834 249.141 164.748 248.001
C 164.413 246.373 162.93 245.02 161.667 244.046
C 156.885 240.358 150.305 241.123 145.317 243.969
C 142.704 245.459 141.26 248.149 137.939 247.932
C 135.415 245.404 138.41 242.605 138.436 240.051
C 138.449 238.749 137.044 237.309 136.186 236.451
C 134.93 235.194 133.24 233.959 131.52 233.453
C 121.206 230.416 113.436 238.009 110.028 247.117
C 109.305 249.05 108.952 251.111 108.81 253.162
C 108.726 254.368 108.932 255.786 108.559 256.939
C 105.49 258.968 101.133 255.522 98.024 254.98
C 91.752 253.886 85.552 255.993 81.143 260.55
C 79.831 262.099 78.653 263.651 77.917 265.561 Z"
opacity="1" fill="rgb(231,161,37)" fill-rule="evenodd" />
<path d="
M 111.444 350.098
C 112.913 343.103 114.027 336.303 119.553 331.143
C 128.493 322.792 142.793 322.768 154.128 324.55
C 160.334 325.526 166.671 327.747 170.76 332.777
C 174.018 336.784 174.466 341.802 174.798 346.761
C 175.121 351.571 175.461 356.359 175.243 361.19
C 175.074 364.931 174.026 368.904 170.678 371.061
C 167.857 372.878 164.236 372.758 161.016 372.882
C 155.344 373.1 149.685 373.184 144.004 373.185
C 141.195 373.186 137.752 372.54 135.085 373.493
C 135.53 374.916 135.672 376.239 136.626 377.479
C 138.624 380.077 141.908 381.154 145.038 381.547
C 150.617 382.248 156.394 381.793 162.004 381.738
C 165.832 381.701 172.425 380.802 174.041 385.465
C 174.541 386.908 174.322 388.691 174.312 390.196
C 174.287 393.822 175.66 399.609 172.423 402.211
C 169.278 404.739 162.941 403.372 159.178 403.43
C 146.312 403.63 132.992 405.09 121.597 397.983
C 110.026 390.766 111.018 375.31 111.079 363.488
C 111.102 359.047 110.947 354.518 111.444 350.098 Z
M 135.855 350.558
C 135.598 351.884 135.156 354.742 136.095 355.842
C 139.765 356.469 143.498 356.308 147.225 356.262
C 148.71 356.244 150.969 356.499 152.349 355.906
C 152.745 353.381 152.577 349.978 150.759 348.004
C 146.738 343.639 137.868 345.097 135.855 350.558 Z"
opacity="1" fill="rgb(213,76,80)" fill-rule="evenodd" />
<path d="
M 114.424 245.048
C 115.019 243.883 115.583 242.322 116.89 241.775
C 118.111 241.264 119.652 241.522 120.897 241.806
C 124.078 242.533 128.768 243.924 131.084 246.332
C 132.817 248.134 132.324 250.877 130.166 252.1
C 129.037 252.563 126.709 250.75 125.744 250.219
C 122.101 248.217 118.169 247.517 114.166 246.659
C 114.217 246.103 114.29 245.591 114.424 245.048 Z"
opacity="1" fill="rgb(230,160,37)" fill-rule="evenodd" />
<path d="
M 115.49 289.122
C 115.565 288.072 115.447 287.022 115.774 286.009
C 117.399 284.569 121.13 283.882 121.906 286.592
C 123.159 290.971 122.224 296.591 122.288 301.121
C 122.324 303.651 122.928 306.596 122.31 309.065
C 121.772 311.209 118.364 311.319 117.067 309.913
C 115.78 308.516 116.071 306.206 115.963 304.444
C 115.842 302.473 115.879 300.477 115.836 298.502
C 115.768 295.374 115.683 292.244 115.49 289.122 Z"
opacity="1" fill="rgb(233,164,32)" fill-rule="evenodd" />
<path d="
M 134.425 303.597
C 135.028 299.145 135.783 294.71 136.33 290.243
C 136.697 287.244 136.794 283.908 137.705 281.019
C 138.518 278.442 143.34 277.445 143.891 280.683
C 144.247 282.779 143.532 285.277 143.226 287.35
C 142.561 291.843 141.849 296.342 141.311 300.851
C 140.981 303.605 141.28 307.495 140.006 309.976
C 139.031 311.874 135.572 311.521 134.582 309.898
C 133.507 308.137 134.167 305.508 134.425 303.597 Z"
opacity="1" fill="rgb(232,165,35)" fill-rule="evenodd" />
<path d="
M 155.901 308.591
C 156.442 304.989 157.574 301.334 158.375 297.772
C 159.665 292.037 160.671 286.233 161.82 280.469
C 162.465 277.235 162.933 272.224 167.516 273.782
C 170.749 274.881 168.282 280.277 167.867 282.537
C 166.675 289.03 164.981 295.423 163.713 301.898
C 163.173 304.651 163.135 308.829 161.643 311.234
C 159.631 314.477 155.403 311.898 155.901 308.591 Z"
opacity="1" fill="rgb(237,162,29)" fill-rule="evenodd" />
<path d="
M 172.426 318.068
C 178.074 303.204 183.886 288.356 189.295 273.409
C 190.529 269.999 191.902 266.432 193.606 263.23
C 194.459 261.627 195.588 260.465 197.544 260.902
C 199.325 261.3 199.873 263.077 199.468 264.651
C 198.568 268.15 196.816 271.66 195.474 275.024
C 191.145 285.874 187.033 296.915 183.149 307.932
C 182.008 311.171 180.737 314.368 179.477 317.564
C 178.942 318.918 178.543 320.875 177.363 321.826
C 174.642 322.125 171.877 321.553 172.426 318.068 Z"
opacity="1" fill="rgb(233,160,33)" fill-rule="evenodd" />
<path d="
M 182.945 341.593
C 183.522 338.7 184.283 336.096 185.812 333.539
C 191.753 323.609 206.108 324.517 216.087 324.77
C 220.514 324.883 226.126 323.74 230.12 326.053
C 234.084 328.348 232.863 334.864 232.551 338.652
C 232.407 340.392 232.273 342.049 231.063 343.412
C 228.975 345.764 225.99 345.902 223.073 345.71
C 219.206 345.455 215.206 344.894 211.342 345.485
C 209.493 345.768 207.582 345.246 206.156 346.738
C 205.839 348.951 207.969 350.107 209.529 351.208
C 213.739 354.178 218.571 356.183 222.827 359.098
C 225.689 361.059 228.765 363.32 230.726 366.23
C 234.417 371.706 234.571 380.074 233.69 386.414
C 233.402 388.49 232.817 390.571 231.908 392.458
C 225.961 404.797 211.443 403.452 200.004 403.438
C 197.05 403.434 194.081 403.457 191.121 403.581
C 189.41 403.653 187.558 403.9 185.953 403.148
C 184.761 402.589 183.705 401.502 183.221 400.275
C 182.682 398.909 182.968 397.367 183.018 395.946
C 183.131 392.692 181.761 388.028 183.725 385.138
C 185.704 382.226 188.636 382.185 191.807 382.203
C 195.54 382.225 199.273 382.274 203.006 382.296
C 204.737 382.306 209.202 383.091 210.276 381.39
C 210.94 378.849 208.708 377.423 206.839 376.183
C 202.448 373.27 197.644 371.016 193.252 368.086
C 190.847 366.482 188.134 364.85 186.397 362.486
C 182.326 356.945 182.28 348.196 182.945 341.593 Z"
opacity="1" fill="rgb(213,76,79)" fill-rule="evenodd" />
<path d="
M 197.421 309.059
C 201.844 298.446 206.903 288.057 211.741 277.626
C 212.829 275.282 213.82 272.877 214.984 270.568
C 215.676 269.196 216.306 268.216 217.979 268.414
C 224.12 269.141 219.199 276.391 217.911 279.424
C 214.67 287.053 210.955 294.519 207.521 302.066
C 205.96 305.494 204.511 310.488 201.649 313.052
C 198.969 313.825 196.579 311.864 197.421 309.059 Z"
opacity="1" fill="rgb(236,164,35)" fill-rule="evenodd" />
<path d="
M 241.337 295.51
C 241.952 294.311 243.01 293.004 244.324 292.549
C 246.207 291.898 248.479 292.262 250.441 292.283
C 253.917 292.322 257.536 291.963 260.991 292.358
C 262.933 292.581 265.02 293.758 265.723 295.682
C 266.245 297.11 265.935 299.01 265.893 300.501
C 265.814 303.335 265.781 306.166 265.771 309
C 265.741 318 265.773 326.999 265.738 335.999
C 265.727 338.663 265.751 341.329 265.729 343.992
C 265.713 345.753 265.448 347.805 265.88 349.519
C 267.52 348.395 268.636 345.449 269.723 343.779
C 272.647 339.287 275.247 334.563 278.455 330.261
C 279.748 328.525 281.613 326.011 283.601 325.048
C 285.364 324.193 288.078 324.582 290 324.564
C 294.715 324.522 299.655 324.192 304.347 324.623
C 306.187 324.792 308.129 326.136 308.115 328.172
C 308.094 331.504 304.077 335.08 302.164 337.598
C 297.959 343.132 294.017 348.919 290.02 354.607
C 288.582 356.655 285.93 359.105 285.198 361.487
C 286.792 365.105 289.675 368.431 291.934 371.662
C 295.912 377.351 299.839 383.087 303.759 388.816
C 305.32 391.099 306.828 393.419 308.284 395.77
C 308.978 396.892 309.947 398.322 309.808 399.706
C 309.654 401.248 308.26 402.97 306.739 403.334
C 303.305 404.155 299.284 403.37 295.769 403.446
C 292.695 403.513 288.107 404.524 285.24 403.185
C 282.051 401.696 280.281 397.653 278.559 394.806
C 275.836 390.302 273.116 385.797 270.376 381.303
C 268.964 378.988 267.683 376.22 265.823 374.252
C 266.069 380.471 265.777 386.768 265.774 392.999
C 265.773 395.209 266.547 398.724 265.365 400.686
C 264.676 401.83 263.55 403.027 262.215 403.36
C 260.243 403.85 257.939 403.368 255.932 403.293
C 251.656 403.134 244.203 405.393 241.622 400.874
C 240.436 398.798 241.208 395.286 241.237 392.998
C 241.313 386.832 241.277 380.668 241.249 374.502
C 241.166 356.17 241.144 337.835 241.153 319.503
C 241.156 314.17 241.144 308.836 241.118 303.503
C 241.106 300.964 240.557 297.954 241.337 295.51 Z"
opacity="1" fill="rgb(213,76,80)" fill-rule="evenodd" />
<path d="
M 307.957 356.606
C 308.87 350.02 309.081 343.395 311.879 337.219
C 317.002 325.91 329.836 322.043 341.447 324.062
C 345.138 324.704 348.882 325.717 352.2 327.494
C 353.795 328.349 355.602 330.373 357.259 330.87
C 356.967 322.457 357.41 313.928 357.358 305.496
C 357.34 302.556 356.381 297.69 357.971 295.096
C 358.713 293.886 359.929 292.862 361.326 292.547
C 364.368 291.862 367.896 292.373 371 292.331
C 373.591 292.296 376.482 291.81 379.024 292.438
C 380.787 292.873 382.321 294.62 382.609 296.391
C 383.004 298.827 382.606 301.532 382.593 303.996
C 382.569 308.496 382.638 312.997 382.655 317.497
C 382.715 332.664 382.681 347.83 382.677 362.997
C 382.675 371.164 382.688 379.332 382.698 387.499
C 382.702 391.323 383.381 395.898 382.438 399.622
C 380.927 405.59 372.426 403.42 367.988 403.4
C 366.118 403.391 363.429 403.996 361.756 402.985
C 359.097 401.377 359.405 399.086 358.131 396.695
C 352.169 399.466 347.31 402.845 340.631 403.864
C 337.404 404.356 333.862 404.485 330.632 403.944
C 327.436 403.407 324.419 402.671 321.557 401.1
C 308.965 394.192 307.508 377.277 307.705 364.499
C 307.745 361.873 307.764 359.226 307.957 356.606 Z
M 332.452 358.603
C 331.746 364.381 331.257 373.891 335.551 378.463
C 339.996 383.196 348.78 381.93 352.921 377.523
C 355.339 374.949 356.504 371.49 356.92 368.04
C 357.606 362.342 357.463 355.697 353.212 351.319
C 349.21 347.197 340.8 344.965 336.191 349.432
C 333.77 351.779 332.847 355.366 332.452 358.603 Z"
opacity="1" fill="rgb(232,159,30)" fill-rule="evenodd" />
<path d="
M 389.979 376.11
C 390.458 372.378 390.432 368.59 392.031 365.082
C 392.813 363.368 393.804 361.739 395.013 360.291
C 403.777 349.785 418.704 352.589 430.692 352.192
C 431.008 351.905 430.627 351.01 430.527 350.658
C 430.115 349.193 429.262 348.061 428.049 347.155
C 424.519 344.515 418.942 344.784 414.726 344.872
C 410.05 344.971 405.37 345.183 400.69 345.25
C 397.88 345.29 394.906 345.121 393.14 342.571
C 391.533 340.251 391.932 337.154 391.95 334.491
C 391.963 332.651 391.77 330.703 392.134 328.888
C 393.378 322.703 402.528 324.365 407.004 324.345
C 420.144 324.284 437.936 321.7 448.154 331.998
C 454.495 338.389 454.4 346.555 454.399 355
C 454.398 364.167 454.328 373.334 454.358 382.501
C 454.374 387.831 454.839 393.457 454.239 398.756
C 453.818 402.473 450.709 403.588 447.408 403.598
C 441.531 403.615 435.662 403.429 429.789 403.415
C 417.058 403.386 400.156 405.571 392.683 392.355
C 391.525 390.307 390.988 388.16 390.498 385.883
C 389.84 382.828 389.813 379.223 389.979 376.11 Z
M 413.414 374.589
C 412.553 381.314 418.201 384.038 424.126 382.991
C 425.989 382.661 428.191 382.595 429.587 381.109
C 431.128 379.469 430.699 376.526 430.785 374.461
C 430.846 373.006 431.193 371.094 430.638 369.725
C 429.114 368.094 426.925 368.102 424.823 368.106
C 419.841 368.116 414.86 369.187 413.414 374.589 Z"
opacity="1" fill="rgb(233,161,30)" fill-rule="evenodd" />
<path d="
M 461.466 344.608
C 461.941 341.31 462.091 338.381 463.561 335.297
C 468.504 324.93 480.621 324.318 490.645 324.318
C 494.892 324.318 499.141 324.285 503.387 324.36
C 506.535 324.415 509.737 325.04 511.205 328.214
C 512.118 330.187 511.642 332.785 511.651 334.896
C 511.659 336.742 511.839 338.637 511.29 340.427
C 508.885 348.266 497.552 344.847 491.613 344.843
C 489.407 344.842 485.781 344.404 484.614 346.812
C 484.876 348.68 486.348 349.725 487.868 350.647
C 490.235 352.082 492.571 353.53 495.029 354.808
C 502.555 358.722 511.372 363.908 512.644 373.091
C 513.117 376.504 513.111 379.994 512.918 383.419
C 512.778 385.918 512.542 388.453 511.672 390.819
C 506.89 403.824 491.829 403.694 480.371 403.663
C 477.171 403.654 473.97 403.571 470.771 403.642
C 468.858 403.684 466.597 403.974 464.869 402.966
C 463.953 402.432 462.815 401.58 462.428 400.544
C 461.885 399.094 462.242 397.333 462.252 395.822
C 462.279 391.808 460.934 386.063 464.858 383.5
C 466.699 382.298 469.253 382.418 471.361 382.402
C 475.436 382.37 479.511 382.454 483.585 382.415
C 485.248 382.4 487.777 382.7 489.25 381.848
C 490.637 379.765 488.335 378.033 486.809 376.969
C 482.656 374.074 478.038 371.917 473.733 369.271
C 470.548 367.313 467.214 365.191 464.913 362.178
C 461.281 357.422 461.096 350.358 461.466 344.608 Z"
opacity="1" fill="rgb(232,160,31)" fill-rule="evenodd" />
<path d="
M 520.464 296.594
C 520.867 294.856 522.325 293.194 524.059 292.67
C 526.072 292.062 528.423 292.314 530.502 292.302
C 533.774 292.283 537.085 292.087 540.354 292.244
C 542.166 292.331 543.804 292.967 544.851 294.528
C 546.576 297.101 545.682 301.551 545.673 304.498
C 545.656 310.498 545.657 316.498 545.644 322.497
C 545.638 325.136 546.102 328.356 545.537 330.927
C 546.905 330.18 548.049 328.958 549.376 328.12
C 552.142 326.373 555.224 325.016 558.413 324.272
C 561.605 323.527 564.991 323.387 568.258 323.61
C 570.897 323.79 573.539 324.265 576.013 325.227
C 590.981 331.05 590.165 350.034 590.077 363.276
C 590.06 365.95 589.96 368.612 589.953 371.287
C 589.933 378.691 589.964 386.096 589.965 393.5
C 589.966 396.415 590.683 400.025 588.226 402.161
C 585.037 404.935 579.202 403.243 575.3 403.475
C 573.153 403.603 570.903 403.998 568.772 403.523
C 567.083 403.147 565.722 401.922 565.178 400.274
C 564.576 398.445 564.949 396.368 565.034 394.487
C 565.138 392.198 565.102 389.896 565.097 387.605
C 565.078 378.226 564.956 368.852 564.955 359.468
C 564.954 355.181 565.666 347.673 560.038 346.372
C 559.021 346.136 557.97 346.097 556.93 346.152
C 551.547 346.436 547.422 350.932 546.174 355.983
C 545.18 360.007 545.591 364.327 545.57 368.437
C 545.534 375.574 545.475 382.713 545.449 389.853
C 545.434 394.04 546.892 400.328 542.93 403.028
C 541.215 404.196 538.715 403.669 536.759 403.605
C 532.947 403.481 528.634 404.321 524.901 403.577
C 523.106 403.218 521.341 401.793 520.856 399.981
C 519.931 396.519 520.66 392.073 520.656 388.501
C 520.649 380.833 520.599 373.166 520.612 365.498
C 520.637 350.496 520.621 335.496 520.552 320.493
C 520.515 312.568 520.137 304.503 520.464 296.594 Z"
opacity="1" fill="rgb(234,161,30)" fill-rule="evenodd" />
<path d="
M 586.52 317.124
C 586.595 308.151 601.583 308.406 601.441 317.668
C 601.344 324.014 593.164 328.216 588.569 323.069
C 587.177 321.509 586.503 319.186 586.52 317.124 Z
M 587.901 316.578
C 587.589 318.87 588.781 320.92 590.215 322.622
C 591.343 323.983 592.765 323.729 594.373 323.557
C 595.598 323.427 596.997 323.313 597.998 322.53
C 604.093 317.758 595.79 307.84 590.471 313.112
C 589.402 314.173 588.638 315.282 587.901 316.578 Z"
opacity="0.996" fill="rgb(237,154,32)" fill-rule="evenodd" />
<path d="
M 591.401 314.479
C 592.651 313.79 594.065 313.962 595.414 314.188
C 596.26 314.698 597.508 316.653 596.855 317.661
C 596.517 318.183 596.054 318.369 596.279 319.104
C 596.375 319.418 597.816 321.186 596.892 321.41
C 595.791 321.676 594.99 319.881 594.475 319.247
C 594.121 318.812 593.452 318.807 592.932 318.746
C 592.903 318.991 592.674 322.977 591.544 321.93
C 591.17 321.583 591.228 320.822 591.226 320.371
C 591.222 319.511 591.683 318.801 591.752 317.996
C 591.859 316.748 590.943 315.795 591.401 314.479 Z
M 592.843 315.982
C 592.82 316.213 592.797 316.444 592.774 316.675
C 593.124 317.299 594.694 317.999 595.372 317.319
C 596.338 316.351 594.359 315.085 593.514 315.336
C 593.08 315.759 593.304 315.544 592.843 315.982 Z"
opacity="0.996" fill="rgb(234,148,38)" fill-rule="evenodd" />

</svg>